<?xml version="1.0" encoding="UTF-8"?>
<svg version="1.1" xmlns="http://www.w3.org/2000/svg" width="1080" height="1080">
<path d="M0 0 C3.64207673 0.0217335 7.28400664 0.02084852 10.92613697 0.01997471 C28.78018611 0.02107163 46.48561552 0.09143739 64.22070312 2.39123535 C65.52628174 2.53585205 66.83186035 2.68046875 68.17700195 2.82946777 C86.07225078 4.82506074 103.59616851 9.36705459 120.97070312 13.95373535 C122.05189926 14.23798874 122.05189926 14.23798874 123.15493774 14.52798462 C135.26550831 17.72463346 147.0843933 21.42623865 158.72070312 26.07873535 C160.25104824 26.68908202 161.78226937 27.29723786 163.31445312 27.9029541 C163.97123047 28.16552002 164.62800781 28.42808594 165.3046875 28.6986084 C167.2565579 29.40419662 169.20000482 29.92286715 171.22070312 30.39123535 C171.22070312 31.05123535 171.22070312 31.71123535 171.22070312 32.39123535 C172.23197266 32.54398926 172.23197266 32.54398926 173.26367188 32.6998291 C176.87938456 33.54524673 180.15340333 34.95353585 183.53320312 36.45373535 C184.17837891 36.73539551 184.82355469 37.01705566 185.48828125 37.30725098 C187.0676867 37.99750966 188.64446806 38.69376733 190.22070312 39.39123535 C190.22070312 40.05123535 190.22070312 40.71123535 190.22070312 41.39123535 C191.04570313 41.63873535 191.87070312 41.88623535 192.72070312 42.14123535 C203.59570254 46.02516371 213.25579378 52.70475487 222.87304688 58.9732666 C225.2381939 60.51917163 225.2381939 60.51917163 228.22070312 61.39123535 C229.56826504 62.71018661 230.89937027 64.04600859 232.22070312 65.39123535 C234.04865382 66.82122871 235.90438105 68.21626982 237.78320312 69.57873535 C238.73324219 70.27354004 239.68328125 70.96834473 240.66210938 71.6842041 C243.17280728 73.52163519 243.17280728 73.52163519 246.22070312 74.39123535 C246.22070312 75.05123535 246.22070312 75.71123535 246.22070312 76.39123535 C247.05601562 76.79342285 247.05601562 76.79342285 247.90820312 77.20373535 C252.83830282 79.73540817 256.33649455 82.41874931 260.22070312 86.39123535 C262.60876 88.48531558 265.01149261 90.56021235 267.42773438 92.6217041 C268.01941406 93.20564941 268.61109375 93.78959473 269.22070312 94.39123535 C269.22070312 95.05123535 269.22070312 95.71123535 269.22070312 96.39123535 C269.77757812 96.61811035 270.33445312 96.84498535 270.90820312 97.07873535 C273.86257385 98.75554036 275.85172656 100.96447887 278.22070312 103.39123535 C279.14882813 104.11311035 280.07695313 104.83498535 281.03320312 105.57873535 C281.75507812 106.17686035 282.47695313 106.77498535 283.22070312 107.39123535 C283.22070312 108.05123535 283.22070312 108.71123535 283.22070312 109.39123535 C283.88070312 109.39123535 284.54070313 109.39123535 285.22070312 109.39123535 C285.22070312 110.05123535 285.22070312 110.71123535 285.22070312 111.39123535 C286.08695313 111.70061035 286.08695313 111.70061035 286.97070312 112.01623535 C290.02723932 113.88411858 291.24123128 116.42202758 293.22070312 119.39123535 C294.2321414 120.30100844 295.27509274 121.1768976 296.34570312 122.01623535 C299.15578352 124.33760611 299.6887132 125.30438998 301.22070312 128.39123535 C303.00034566 130.52519586 304.87371562 132.54653458 306.75976562 134.58654785 C308.22070312 136.39123535 308.22070312 136.39123535 308.22070312 138.39123535 C308.81625 138.60779785 309.41179688 138.82436035 310.02539062 139.04748535 C312.9645168 140.84652344 313.80855418 142.83303326 315.34570312 145.89123535 C317.3660999 149.94209977 317.3660999 149.94209977 320.22070312 153.39123535 C321.19006577 155.26310804 322.15311938 157.13873168 323.07226562 159.0357666 C323.87868768 160.68975469 324.70902919 162.33219112 325.55664062 163.9654541 C326.22566406 165.25902832 326.22566406 165.25902832 326.90820312 166.57873535 C327.53275391 167.77562988 327.53275391 167.77562988 328.16992188 168.9967041 C329.25212734 171.46284518 329.79211037 173.73961204 330.22070312 176.39123535 C331.21070313 176.72123535 332.20070313 177.05123535 333.22070312 177.39123535 C333.58736979 182.89123535 333.58736979 182.89123535 331.84570312 185.26623535 C330.22070312 186.39123535 330.22070312 186.39123535 328.22070312 186.39123535 C328.22070312 187.05123535 328.22070312 187.71123535 328.22070312 188.39123535 C327.56070313 188.39123535 326.90070312 188.39123535 326.22070312 188.39123535 C325.89070312 189.38123535 325.56070313 190.37123535 325.22070312 191.39123535 C324.23070312 191.39123535 323.24070312 191.39123535 322.22070312 191.39123535 C322.22070312 192.05123535 322.22070312 192.71123535 322.22070312 193.39123535 C319.3152143 195.4329302 317.81928267 196.39123535 314.22070312 196.39123535 C313.89070312 197.38123535 313.56070313 198.37123535 313.22070312 199.39123535 C308.88736979 202.39123535 308.88736979 202.39123535 306.22070312 202.39123535 C306.22070312 203.05123535 306.22070312 203.71123535 306.22070312 204.39123535 C305.25132812 204.84498535 304.28195312 205.29873535 303.28320312 205.76623535 C300.14990731 207.04909757 300.14990731 207.04909757 299.22070312 209.39123535 C298.23070312 209.39123535 297.24070312 209.39123535 296.22070312 209.39123535 C295.89070312 210.38123535 295.56070313 211.37123535 295.22070312 212.39123535 C293.89662644 213.0761026 292.56161072 213.73993738 291.22070312 214.39123535 C290.51945313 215.09248535 289.81820312 215.79373535 289.09570312 216.51623535 C288.47695313 217.13498535 287.85820313 217.75373535 287.22070312 218.39123535 C286.56070313 218.39123535 285.90070312 218.39123535 285.22070312 218.39123535 C284.21770464 219.38822785 283.21840164 220.38893915 282.22070312 221.39123535 C280.53417623 222.50821382 278.82287743 223.58820031 277.09570312 224.64123535 C272.75761928 227.35749961 268.73179722 230.24748395 264.73632812 233.43811035 C261.01750706 236.32539379 257.17255999 239.02843464 253.32983398 241.74743652 C249.37190663 244.55225414 245.48673986 247.4297021 241.67382812 250.43029785 C240.22070312 251.39123535 240.22070312 251.39123535 238.22070312 251.39123535 C237.89070312 252.38123535 237.56070313 253.37123535 237.22070312 254.39123535 C236.23070312 254.72123535 235.24070312 255.05123535 234.22070312 255.39123535 C233.89070312 256.05123535 233.56070313 256.71123535 233.22070312 257.39123535 C231.23004772 258.40971021 229.22822128 259.40641513 227.22070312 260.39123535 C223.04457477 262.74930733 223.04457477 262.74930733 220.22070312 266.39123535 C215.72070313 269.39123535 215.72070313 269.39123535 213.22070312 269.39123535 C213.22070312 270.05123535 213.22070312 270.71123535 213.22070312 271.39123535 C211.82851562 272.13373535 211.82851562 272.13373535 210.40820312 272.89123535 C205.85133549 275.46848016 201.74665583 278.62954972 197.57617188 281.78186035 C195.22070312 283.39123535 195.22070312 283.39123535 193.22070312 283.39123535 C193.22070312 284.05123535 193.22070312 284.71123535 193.22070312 285.39123535 C190.47070312 286.14123535 190.47070312 286.14123535 187.22070312 286.39123535 C184.84570312 284.64123535 184.84570312 284.64123535 183.22070312 282.39123535 C183.22070312 281.40123535 183.22070312 280.41123535 183.22070312 279.39123535 C182.20208207 277.45986116 181.10708204 275.56825623 179.97070312 273.70373535 C177.95846866 270.35534519 176.0082958 267.07972676 174.40820312 263.51623535 C169.72052537 253.81478051 161.85583576 242.79794666 153.22070312 236.39123535 C152.26164063 235.18467285 152.26164063 235.18467285 151.28320312 233.95373535 C149.31423634 231.31804082 149.31423634 231.31804082 146.72070312 229.39123535 C144.22070312 227.39123535 144.22070312 227.39123535 142.15820312 224.70373535 C140.03792894 222.17308552 139.30552222 222.00819917 136.22070312 221.39123535 C135.56070313 220.40123535 134.90070312 219.41123535 134.22070312 218.39123535 C133.56070313 218.39123535 132.90070312 218.39123535 132.22070312 218.39123535 C130.97760894 216.88643713 129.7368536 215.37945099 128.52148438 213.85217285 C126.95330739 212.09091702 125.38508398 211.28684122 123.22070312 210.39123535 C122.56070313 209.73123535 121.90070312 209.07123535 121.22070312 208.39123535 C117.12971553 204.85226642 112.73807802 202.25552783 108.03320312 199.64123535 C107.30939453 199.23002441 106.58558594 198.81881348 105.83984375 198.3951416 C102.2514376 196.17966837 102.2514376 196.17966837 98.22070312 195.39123535 C98.22070312 194.73123535 98.22070312 194.07123535 98.22070312 193.39123535 C97.58390625 193.3035791 96.94710937 193.21592285 96.29101562 193.12561035 C92.01829011 192.10363529 88.1361942 190.34544094 84.09570312 188.64123535 C77.11295397 185.77228392 70.14884306 183.31167467 62.84570312 181.39123535 C61.67950439 181.08041016 61.67950439 181.08041016 60.48974609 180.76330566 C56.2859854 179.70845352 52.58160121 179.2804203 48.22070312 179.39123535 C46.54529649 178.74684818 44.87887097 178.07876836 43.22070312 177.39123535 C40.89244087 177.02415167 38.55789357 176.69635238 36.22070312 176.39123535 C34.37980103 176.13068359 34.37980103 176.13068359 32.50170898 175.86486816 C22.39949102 174.51732652 12.45105658 174.07830025 2.2644043 174.13049316 C-0.212001 174.14121459 -2.68767887 174.13051858 -5.1640625 174.11779785 C-20.2992982 174.10291138 -35.06968623 175.432727 -49.84179688 178.82873535 C-50.78216797 179.03305176 -51.72253906 179.23736816 -52.69140625 179.44787598 C-70.76398622 183.4793549 -88.01348279 190.75769555 -103.77929688 200.39123535 C-104.88144531 201.00354004 -105.98359375 201.61584473 -107.11914062 202.2467041 C-111.44756887 204.70730005 -115.47505243 207.57048123 -119.52929688 210.45373535 C-120.28339844 210.98289551 -121.0375 211.51205566 -121.81445312 212.05725098 C-125.80064256 214.82404693 -125.80064256 214.82404693 -129.38964844 218.06481934 C-130.77929688 219.39123535 -130.77929688 219.39123535 -132.77929688 219.39123535 C-132.77929688 220.05123535 -132.77929688 220.71123535 -132.77929688 221.39123535 C-133.33617187 221.59748535 -133.89304687 221.80373535 -134.46679688 222.01623535 C-137.04490763 223.54916607 -138.5165628 225.41154028 -140.35742188 227.7467041 C-141.89291724 229.52264792 -143.53359951 230.95849522 -145.34179688 232.45373535 C-148.24142396 234.85860965 -150.4761373 237.3971279 -152.77929688 240.39123535 C-154.9737377 242.63919912 -157.20416899 244.8374085 -159.46679688 247.01623535 C-161.01848629 248.56231563 -161.01848629 248.56231563 -162.77929688 251.39123535 C-164.08659468 252.97886665 -165.39971165 254.56171415 -166.71679688 256.14123535 C-169.10103375 259.08823804 -171.15660956 261.72332171 -172.52929688 265.26623535 C-173.77929688 268.39123535 -173.77929688 268.39123535 -175.64648438 270.24279785 C-178.00963471 272.62326064 -179.48908734 274.98298207 -181.15429688 277.89123535 C-181.69828125 278.82967285 -182.24226562 279.76811035 -182.80273438 280.73498535 C-197.14011651 306.81030484 -205.73284148 335.11845057 -211.09179688 364.26623535 C-211.21526489 364.93244904 -211.33873291 365.59866272 -211.46594238 366.2850647 C-214.86011396 384.83055896 -216.16282846 403.10915303 -216.09179688 421.95373535 C-216.08997406 422.9614801 -216.08815125 423.96922485 -216.08627319 425.00750732 C-215.9988958 453.76463062 -212.57845998 481.89776487 -203.77929688 509.39123535 C-203.43680908 510.46196289 -203.43680908 510.46196289 -203.08740234 511.55432129 C-200.56316818 519.39835839 -198.01084318 527.22672803 -194.83789062 534.83654785 C-193.99004281 536.88264552 -193.17754817 538.94337826 -192.37695312 541.00842285 C-189.89600085 547.40717236 -187.36292777 553.63489914 -183.85742188 559.5592041 C-182.77929688 561.39123535 -182.77929688 561.39123535 -181.84960938 563.2935791 C-180.52244705 565.8946235 -178.98079722 568.30854704 -177.40429688 570.76623535 C-176.78683594 571.73174316 -176.169375 572.69725098 -175.53320312 573.6920166 C-174.16298624 575.80074682 -172.7682037 577.8831448 -171.34179688 579.95373535 C-169.77929688 582.39123535 -169.77929688 582.39123535 -169.77929688 584.39123535 C-169.11929688 584.39123535 -168.45929688 584.39123535 -167.77929688 584.39123535 C-167.44929687 585.38123535 -167.11929688 586.37123535 -166.77929688 587.39123535 C-165.7998525 588.41137687 -164.79789086 589.41018169 -163.77929688 590.39123535 C-162.94479755 591.5422689 -162.13221449 592.70949623 -161.34179688 593.89123535 C-159.4071217 596.66833666 -157.51231598 598.38702134 -154.77929688 600.39123535 C-153.7562474 602.04385374 -152.75313634 603.70914901 -151.77929688 605.39123535 C-151.11929687 605.72123535 -150.45929688 606.05123535 -149.77929688 606.39123535 C-149.77929688 607.05123535 -149.77929688 607.71123535 -149.77929688 608.39123535 C-148.78929687 608.39123535 -147.79929687 608.39123535 -146.77929688 608.39123535 C-146.77929688 609.05123535 -146.77929688 609.71123535 -146.77929688 610.39123535 C-145.78929687 610.72123535 -144.79929687 611.05123535 -143.77929688 611.39123535 C-142.77929688 613.05790202 -141.77929688 614.72456868 -140.77929688 616.39123535 C-139.78929687 616.72123535 -138.79929687 617.05123535 -137.77929688 617.39123535 C-136.09179687 618.82873535 -136.09179687 618.82873535 -134.77929688 620.39123535 C-134.77929688 621.05123535 -134.77929688 621.71123535 -134.77929688 622.39123535 C-134.11929687 622.39123535 -133.45929688 622.39123535 -132.77929688 622.39123535 C-132.11929687 623.05123535 -131.45929688 623.71123535 -130.77929688 624.39123535 C-130.11929687 623.73123535 -129.45929688 623.07123535 -128.77929688 622.39123535 C-128.71742188 623.17498535 -128.65554688 623.95873535 -128.59179688 624.76623535 C-128.32367188 625.63248535 -128.05554688 626.49873535 -127.77929688 627.39123535 C-126.12725232 628.09335429 -124.46005919 628.76094948 -122.77929688 629.39123535 C-121.96679688 631.51623535 -121.96679688 631.51623535 -121.77929688 633.39123535 C-121.11929687 633.39123535 -120.45929688 633.39123535 -119.77929688 633.39123535 C-119.77929688 634.05123535 -119.77929688 634.71123535 -119.77929688 635.39123535 C-120.62234375 635.80115723 -121.46539062 636.2110791 -122.33398438 636.63342285 C-123.4296875 637.17225098 -124.52539062 637.7110791 -125.65429688 638.26623535 C-127.29011719 639.06674316 -127.29011719 639.06674316 -128.95898438 639.88342285 C-131.81812235 641.23659472 -131.81812235 641.23659472 -133.77929688 643.39123535 C-135.09929687 643.39123535 -136.41929687 643.39123535 -137.77929688 643.39123535 C-137.77929688 644.38123535 -137.77929688 645.37123535 -137.77929688 646.39123535 C-139.09929687 646.06123535 -140.41929687 645.73123535 -141.77929688 645.39123535 C-142.10929687 646.05123535 -142.43929688 646.71123535 -142.77929688 647.39123535 C-146.91375536 650.66034206 -149.49344198 651.8946501 -154.77929688 651.39123535 C-155.10929687 652.38123535 -155.43929688 653.37123535 -155.77929688 654.39123535 C-157.66992188 655.30529785 -157.66992188 655.30529785 -160.02929688 656.01623535 C-160.83882812 656.26502441 -161.64835938 656.51381348 -162.48242188 656.7701416 C-164.77929688 657.39123535 -164.77929688 657.39123535 -167.77929688 657.95373535 C-168.43929687 658.09811035 -169.09929687 658.24248535 -169.77929688 658.39123535 C-170.10929688 659.05123535 -170.43929687 659.71123535 -170.77929688 660.39123535 C-173.98389536 662.52763434 -177.21022029 663.98238933 -180.77929688 665.39123535 C-181.76929688 666.05123535 -182.75929688 666.71123535 -183.77929688 667.39123535 C-184.76929688 667.06123535 -185.75929688 666.73123535 -186.77929688 666.39123535 C-187.10929688 667.05123535 -187.43929687 667.71123535 -187.77929688 668.39123535 C-189.11006677 668.73465984 -190.44361666 669.06743409 -191.77929688 669.39123535 C-192.43929687 670.05123535 -193.09929687 670.71123535 -193.77929688 671.39123535 C-194.76929688 671.39123535 -195.75929688 671.39123535 -196.77929688 671.39123535 C-197.10929688 672.05123535 -197.43929687 672.71123535 -197.77929688 673.39123535 C-199.77653235 673.74075156 -201.77739815 674.06950163 -203.77929688 674.39123535 C-206.80859919 675.30890674 -209.79511764 676.33682535 -212.77929688 677.39123535 C-212.77929688 678.05123535 -212.77929688 678.71123535 -212.77929688 679.39123535 C-213.84313599 679.57915649 -213.84313599 679.57915649 -214.9284668 679.77087402 C-217.86547211 680.40998771 -220.56555895 681.29837982 -223.39257812 682.3170166 C-224.46878418 682.6997876 -225.54499023 683.08255859 -226.65380859 683.47692871 C-227.78834473 683.8817749 -228.92288086 684.28662109 -230.09179688 684.70373535 C-238.9241988 687.81979105 -247.65916415 690.61086332 -256.80273438 692.6373291 C-259.4347585 693.30397038 -261.37887785 694.18857142 -263.77929688 695.39123535 C-265.49581619 695.74991103 -267.22900854 696.03133431 -268.96679688 696.26623535 C-273.61549652 696.92202461 -278.24709671 697.62754252 -282.87695312 698.40686035 C-283.96919189 698.5887793 -285.06143066 698.77069824 -286.18676758 698.95812988 C-288.37754495 699.32392618 -290.56752741 699.69452292 -292.7565918 700.07043457 C-308.81114779 702.71595108 -308.81114779 702.71595108 -313.01367188 699.8873291 C-313.76390625 698.8683252 -313.76390625 698.8683252 -314.52929688 697.82873535 C-315.08488281 697.10428223 -315.64046875 696.3798291 -316.21289062 695.63342285 C-316.72980469 694.89350098 -317.24671875 694.1535791 -317.77929688 693.39123535 C-318.26527344 692.71318848 -318.75125 692.0351416 -319.25195312 691.33654785 C-319.91517578 690.40455566 -319.91517578 690.40455566 -320.59179688 689.45373535 C-322.43487953 686.36849081 -322.43487953 686.36849081 -324.77929688 685.39123535 C-325.75055325 683.71816792 -326.71710583 682.04205145 -327.65087891 680.34777832 C-329.45269655 677.22364016 -331.58595164 674.35891742 -333.71679688 671.45373535 C-341.99635137 660.01328212 -341.99635137 660.01328212 -344.77148438 654.37561035 C-345.85592045 652.13640583 -345.85592045 652.13640583 -347.90429688 649.26623535 C-349.77929688 646.39123535 -349.77929688 646.39123535 -349.77929688 644.39123535 C-350.43929687 644.06123535 -351.09929687 643.73123535 -351.77929688 643.39123535 C-355.23018049 638.41183536 -358.22896268 633.28250528 -359.77929688 627.39123535 C-360.43929687 627.39123535 -361.09929687 627.39123535 -361.77929688 627.39123535 C-361.96492188 625.93717285 -361.96492188 625.93717285 -362.15429688 624.45373535 C-362.36054688 623.44311035 -362.56679688 622.43248535 -362.77929688 621.39123535 C-363.43929687 621.06123535 -364.09929687 620.73123535 -364.77929688 620.39123535 C-364.77929688 619.40123535 -364.77929688 618.41123535 -364.77929688 617.39123535 C-365.43929687 617.39123535 -366.09929687 617.39123535 -366.77929688 617.39123535 C-367.76929688 613.43123535 -367.76929688 613.43123535 -368.77929688 609.39123535 C-369.43929687 609.39123535 -370.09929687 609.39123535 -370.77929688 609.39123535 C-371.19179688 608.23623535 -371.60429687 607.08123535 -372.02929688 605.89123535 C-373.0938579 603.04577317 -374.25981056 600.33950968 -375.65429688 597.64123535 C-378.36414131 592.36634733 -380.54560872 586.88033023 -382.77929688 581.39123535 C-383.37677734 579.96230957 -383.37677734 579.96230957 -383.98632812 578.5045166 C-384.35113281 577.62150879 -384.7159375 576.73850098 -385.09179688 575.82873535 C-385.58099609 574.65117676 -385.58099609 574.65117676 -386.08007812 573.4498291 C-386.77929688 571.39123535 -386.77929688 571.39123535 -386.77929688 568.39123535 C-387.43929687 568.06123535 -388.09929687 567.73123535 -388.77929688 567.39123535 C-389.50561523 565.50158691 -389.50561523 565.50158691 -390.18164062 563.03186035 C-391.24591331 559.27245591 -392.34594796 555.53573817 -393.53320312 551.81311035 C-393.83033203 550.8798291 -394.12746094 549.94654785 -394.43359375 548.98498535 C-394.73330078 548.04654785 -395.03300781 547.10811035 -395.34179688 546.14123535 C-395.64537109 545.1873291 -395.94894531 544.23342285 -396.26171875 543.25061035 C-397.97145923 537.87681558 -397.97145923 537.87681558 -399.76782227 532.53161621 C-401.80566904 526.20460122 -403.16676072 519.6787675 -404.65429688 513.20373535 C-404.83293274 512.42623932 -405.0115686 511.64874329 -405.19561768 510.84768677 C-407.52411315 500.64027328 -409.62636386 490.44200653 -411.15429688 480.07873535 C-411.29722168 479.11234131 -411.44014648 478.14594727 -411.58740234 477.15026855 C-414.12557275 458.65854343 -415.22017521 440.10280264 -415.59179688 421.45373535 C-415.61431519 420.3918399 -415.6368335 419.32994446 -415.66003418 418.23587036 C-416.00874932 400.37492832 -415.27919752 383.09405216 -412.77929688 365.39123535 C-412.64442871 364.39914062 -412.50956055 363.4070459 -412.37060547 362.3848877 C-411.68358504 357.37896427 -410.92715619 352.38939893 -410.10253906 347.40441895 C-409.63132383 344.46964491 -409.24671735 341.52328863 -408.84179688 338.57873535 C-407.84013877 332.17297019 -406.21423962 326.00169605 -404.44921875 319.7677002 C-403.66774862 316.99553172 -402.9032016 314.21890403 -402.13867188 311.4420166 C-400.64480664 306.03087727 -399.12411543 300.6278289 -397.5859375 295.22912598 C-397.10851672 293.54948336 -396.63447635 291.86886355 -396.16796875 290.18615723 C-387.30950715 258.31530831 -372.34514795 227.13296217 -355.31103516 198.96496582 C-353.04425719 195.15617185 -350.8994725 191.28312209 -348.77929688 187.39123535 C-348.11929688 187.39123535 -347.45929688 187.39123535 -346.77929688 187.39123535 C-346.53179687 186.70029785 -346.28429687 186.00936035 -346.02929688 185.29748535 C-344.58591457 181.9416215 -342.76306462 178.94427101 -340.77929688 175.89123535 C-340.38484375 175.28175049 -339.99039063 174.67226563 -339.58398438 174.04431152 C-335.32207014 167.55511153 -330.62174899 161.45389331 -325.77929688 155.39123535 C-325.03808594 154.45537598 -324.296875 153.5195166 -323.53320312 152.55529785 C-318.70445683 146.547339 -313.61310604 140.84764196 -308.35742188 135.2154541 C-306.50808741 133.18959225 -304.78556158 131.17125235 -303.07617188 129.0357666 C-301.93921875 127.72672363 -301.93921875 127.72672363 -300.77929688 126.39123535 C-300.11929688 126.39123535 -299.45929688 126.39123535 -298.77929688 126.39123535 C-298.77929688 125.73123535 -298.77929688 125.07123535 -298.77929688 124.39123535 C-298.11929688 124.39123535 -297.45929688 124.39123535 -296.77929688 124.39123535 C-296.53179687 123.77248535 -296.28429687 123.15373535 -296.02929688 122.51623535 C-294.54189319 119.98764908 -293.34251679 119.67284531 -290.77929688 118.39123535 C-290.53050781 117.82791504 -290.28171875 117.26459473 -290.02539062 116.6842041 C-288.24183337 113.40223511 -285.5867652 111.17077218 -282.84179688 108.70373535 C-281.97542603 107.91470825 -281.97542603 107.91470825 -281.09155273 107.10974121 C-276.56756394 103.02233749 -271.91927316 99.11935045 -267.16210938 95.30529785 C-265.14322756 93.68357312 -263.17515234 92.02219249 -261.21679688 90.32873535 C-258.77929688 88.39123535 -258.77929688 88.39123535 -256.77929688 88.39123535 C-256.77929688 87.73123535 -256.77929688 87.07123535 -256.77929688 86.39123535 C-254.66210937 84.66467285 -254.66210937 84.66467285 -251.90429688 82.76623535 C-250.999375 82.13459473 -250.09445312 81.5029541 -249.16210938 80.85217285 C-246.77929688 79.39123535 -246.77929688 79.39123535 -244.77929688 79.39123535 C-244.77929688 78.73123535 -244.77929688 78.07123535 -244.77929688 77.39123535 C-243.36323697 76.59848387 -241.94642135 75.80708223 -240.52929688 75.01623535 C-239.74039063 74.57537598 -238.95148438 74.1345166 -238.13867188 73.68029785 C-236.04015491 72.53375713 -233.92568918 71.44473983 -231.77929688 70.39123535 C-231.77929688 69.73123535 -231.77929688 69.07123535 -231.77929688 68.39123535 C-229.66210937 66.88342285 -229.66210937 66.88342285 -226.90429688 65.26623535 C-225.999375 64.72740723 -225.09445312 64.1885791 -224.16210938 63.63342285 C-221.77929688 62.39123535 -221.77929688 62.39123535 -219.77929688 62.39123535 C-219.77929688 61.73123535 -219.77929688 61.07123535 -219.77929688 60.39123535 C-218.72742188 59.97873535 -217.67554688 59.56623535 -216.59179688 59.14123535 C-214.03655929 58.06076415 -212.4648482 57.13181519 -210.27929688 55.32873535 C-207.26339784 52.9914136 -204.4310536 52.37440062 -200.77929688 51.39123535 C-200.44929687 50.73123535 -200.11929688 50.07123535 -199.77929688 49.39123535 C-198.16831035 48.45362415 -196.51517972 47.58732134 -194.84179688 46.76623535 C-193.94589844 46.32021973 -193.05 45.8742041 -192.12695312 45.41467285 C-189.77929688 44.39123535 -189.77929688 44.39123535 -187.77929688 44.39123535 C-187.44929687 43.73123535 -187.11929688 43.07123535 -186.77929688 42.39123535 C-185.09619141 41.4173584 -185.09619141 41.4173584 -182.91210938 40.4029541 C-182.10773438 40.02590332 -181.30335938 39.64885254 -180.47460938 39.26037598 C-179.62640625 38.87043457 -178.77820313 38.48049316 -177.90429688 38.07873535 C-177.09476563 37.70039551 -176.28523437 37.32205566 -175.45117188 36.93225098 C-172.89820572 35.74234325 -170.33881527 34.56697325 -167.77929688 33.39123535 C-166.89330811 32.97672119 -166.00731934 32.56220703 -165.09448242 32.13513184 C-139.95862962 20.47990969 -112.96635279 12.9647635 -85.84179688 7.64123535 C-84.80700699 7.4357608 -84.80700699 7.4357608 -83.75131226 7.22613525 C-79.33013852 6.35769159 -74.89956217 5.57182966 -70.4541626 4.83758545 C-68.57611359 4.52419874 -66.69988849 4.19977813 -64.82513428 3.86724854 C-43.16842832 0.08208404 -21.91958491 -0.16483117 0 0 Z " fill="#FEFEFE" transform="translate(559.779296875,102.6087646484375)"/>
<path d="M0 0 C0.66 0.33 1.32 0.66 2 1 C2.62255859 3.22705078 2.62255859 3.22705078 3.1484375 6.1953125 C3.34703369 7.29206299 3.54562988 8.38881348 3.75024414 9.51879883 C3.95641357 10.70884521 4.16258301 11.8988916 4.375 13.125 C4.70262329 14.95550903 4.70262329 14.95550903 5.03686523 16.82299805 C5.70079562 20.54705492 6.35217273 24.27311143 7 28 C7.35806204 30.04557482 7.71613416 32.09114788 8.07421875 34.13671875 C8.72995113 37.89503676 9.37976 41.65433311 10.02734375 45.4140625 C11.02458782 51.17839699 12.07164311 56.93319536 13.125 62.6875 C15.31577387 74.69510657 17.28074353 86.70096651 18.94750977 98.79321289 C19.13011353 100.10213501 19.13011353 100.10213501 19.31640625 101.4375 C19.42412354 102.21996094 19.53184082 103.00242187 19.64282227 103.80859375 C19.94564896 106.01026925 19.94564896 106.01026925 20.67553711 108.09765625 C21 110 21 110 18.875 113 C16.46870391 115.6408932 13.93007017 117.94103177 11 120 C10.34 120 9.68 120 9 120 C9 120.66 9 121.32 9 122 C7.26953125 123.5234375 7.26953125 123.5234375 4.8125 125.375 C0.52471393 128.71196346 -3.48330654 132.22133394 -7.4375 135.9375 C-12.26293189 140.45957458 -17.22827143 144.71228747 -22.38671875 148.85546875 C-25.84799594 151.69588904 -29.13497416 154.70844591 -32.4375 157.73046875 C-36.08545356 160.96135445 -39.90806782 163.96097902 -43.75 166.95703125 C-45.90111827 168.91021676 -46.94319168 170.32795624 -48 173 C-46.7625 173.226875 -45.525 173.45375 -44.25 173.6875 C-40.47499239 174.52387017 -37.09901285 175.71800896 -33.5546875 177.2578125 C-26.74539691 180.14519758 -19.83020814 182.67634079 -12.875 185.1875 C-1.57851668 189.28493902 9.65635138 193.51215284 20.83837891 197.91479492 C21.84175293 198.30642822 22.84512695 198.69806152 23.87890625 199.1015625 C25.18710327 199.61710693 25.18710327 199.61710693 26.52172852 200.14306641 C29.00214683 201.00074233 31.41750443 201.54822958 34 202 C34 202.66 34 203.32 34 204 C35.32 204.33 36.64 204.66 38 205 C38.185625 206.9490625 38.185625 206.9490625 38.375 208.9375 C38.8090341 212.8621464 39.53697381 216.61476454 40.44262695 220.45361328 C41.01878341 223.08581295 41.47994533 225.7157434 41.9140625 228.375 C42.17449341 229.96018433 42.17449341 229.96018433 42.44018555 231.57739258 C42.7172937 233.27158325 42.7172937 233.27158325 43 235 C43.39393633 237.37900484 43.78848664 239.75790808 44.18359375 242.13671875 C44.48934326 243.97907104 44.48934326 243.97907104 44.80126953 245.85864258 C46.80502101 257.91728969 48.84043334 269.96812859 51 282 C56 309.88633461 56 309.88633461 56 315 C52.0361772 315 50.11638988 314.45111271 46.50390625 313.015625 C45.40167725 312.58064697 44.29944824 312.14566895 43.16381836 311.69750977 C41.9753833 311.21983154 40.78694824 310.74215332 39.5625 310.25 C38.31989429 309.75604787 37.07713447 309.26248326 35.83422852 308.76928711 C25.46536842 304.6412363 15.15094072 300.3788926 4.85961914 296.06152344 C-1.11820285 293.56185413 -7.1086644 291.19724417 -13.21118164 289.02075195 C-19.63912895 286.66802082 -25.95770654 284.02277056 -32.29882812 281.44726562 C-33.36423828 281.01736328 -34.42964844 280.58746094 -35.52734375 280.14453125 C-36.48374756 279.75628174 -37.44015137 279.36803223 -38.42553711 278.96801758 C-40.61349044 278.14533053 -42.72111162 277.50302661 -45 277 C-45 276.34 -45 275.68 -45 275 C-45.66 275.0825 -46.32 275.165 -47 275.25 C-50.35983362 274.97001386 -52.50018096 273.75111655 -55.45800781 272.22558594 C-60.78773844 269.65593095 -66.35976493 267.63286751 -71.875 265.5 C-74.30999572 264.55233995 -76.7448933 263.60442768 -79.1796875 262.65625 C-80.34870605 262.20145264 -81.51772461 261.74665527 -82.72216797 261.27807617 C-89.03018424 258.81848544 -95.30375279 256.31805693 -101.5078125 253.60546875 C-102.43207031 253.20779297 -103.35632813 252.81011719 -104.30859375 252.40039062 C-106.19993262 251.585882 -108.08535951 250.75751785 -109.96484375 249.91601562 C-115.86879841 247.40993138 -119.72079802 246.38273633 -126 248 C-128.9074024 250.36649033 -130.96736415 252.9594257 -133.3125 255.875 C-135.86441666 259.0010979 -138.79999673 261.51619741 -141.87109375 264.12109375 C-144.85673514 266.75612771 -147.59060035 269.61403662 -150.3359375 272.49609375 C-152 274 -152 274 -154 274 C-154.26321045 274.59296875 -154.5264209 275.1859375 -154.79760742 275.796875 C-156.05547631 278.10164837 -157.31395955 279.479076 -159.23828125 281.25 C-159.88708252 281.85247559 -160.53588379 282.45495117 -161.2043457 283.07568359 C-161.90003662 283.71070801 -162.59572754 284.34573242 -163.3125 285 C-164.02946045 285.66209473 -164.7464209 286.32418945 -165.48510742 287.00634766 C-166.95282682 288.36099035 -168.42263673 289.71337154 -169.89453125 291.06347656 C-171.79399802 292.81052787 -173.68124972 294.56931921 -175.5625 296.3359375 C-181.4531604 301.85391458 -187.44191781 307.12805618 -193.7578125 312.16015625 C-195.9770376 313.9077724 -195.9770376 313.9077724 -197.6796875 315.74609375 C-199 317 -199 317 -201 317 C-201 317.99 -201 318.98 -201 320 C-202.423125 320.7425 -202.423125 320.7425 -203.875 321.5 C-210.32213396 325.17473559 -215.88768235 330.18356114 -221.5 335 C-224 337 -224 337 -226 337 C-226 337.66 -226 338.32 -226 339 C-228.046875 340.5859375 -228.046875 340.5859375 -230.75 342.375 C-234.22413518 344.68093183 -237.07255825 347.04368802 -240 350 C-241.6219752 351.24017469 -243.27013227 352.44655965 -244.9375 353.625 C-249.31083249 356.7597108 -253.61498626 359.96424402 -257.875 363.25 C-258.40988037 363.6620166 -258.94476074 364.0740332 -259.49584961 364.49853516 C-261.80720849 366.28463456 -264.10363488 368.08417133 -266.37109375 369.92578125 C-269.89777388 372.70834759 -273.53859822 375.31826998 -277.1875 377.9375 C-278.80865682 379.10407903 -280.42974879 380.27074817 -282.05078125 381.4375 C-282.87529785 382.03046875 -283.69981445 382.6234375 -284.54931641 383.234375 C-286.86322168 384.90145638 -289.17280176 386.57429761 -291.48046875 388.25 C-299.52420601 394.08749076 -307.60850079 399.86195807 -315.75 405.5625 C-316.5838623 406.14636475 -317.41772461 406.73022949 -318.27685547 407.33178711 C-348.94717965 428.74473821 -381.38955246 448.20917539 -414.1875 466.1875 C-415.44965332 466.88153931 -415.44965332 466.88153931 -416.73730469 467.58959961 C-424.72090749 471.93451604 -432.85207178 475.97484561 -441 480 C-441.65984894 480.3261026 -442.31969788 480.6522052 -442.99954224 480.9881897 C-494.58646457 506.44871597 -547.43278009 527.01642715 -603 542 C-600.69 543.32 -598.38 544.64 -596 546 C-596.99 546.33 -597.98 546.66 -599 547 C-600.62109375 546.15234375 -600.62109375 546.15234375 -602.4375 544.9375 C-606.14345292 542.97202847 -608.34977786 542.91444676 -612.4375 543.72265625 C-614.02679321 544.02345093 -614.02679321 544.02345093 -615.64819336 544.33032227 C-616.75428955 544.55131592 -617.86038574 544.77230957 -619 545 C-621.18822283 545.40935862 -623.37703841 545.81556013 -625.56640625 546.21875 C-626.69667236 546.42798096 -627.82693848 546.63721191 -628.99145508 546.8527832 C-690.20803226 557.9476862 -757.00640027 553.87628692 -809.76220703 517.75048828 C-811.52012038 516.51604461 -813.26331982 515.2641175 -815 514 C-815.85198975 513.38125 -815.85198975 513.38125 -816.72119141 512.75 C-828.57351054 504.05852564 -838.97037946 494.63894054 -848 483 C-848.61617187 482.24976563 -849.23234375 481.49953125 -849.8671875 480.7265625 C-865.09014969 461.98540461 -872.41720482 438.9528821 -873 415 C-873.03867187 413.76507812 -873.07734375 412.53015625 -873.1171875 411.2578125 C-872.98728558 384.01088551 -859.56319076 354.35271998 -840.375 335.25 C-839.52228516 334.44175781 -839.52228516 334.44175781 -838.65234375 333.6171875 C-836.9522056 331.95322251 -835.45851754 330.2032555 -833.9375 328.375 C-830.44483045 324.33085631 -826.63401759 320.66237124 -822.75 317 C-822.13503662 316.41138184 -821.52007324 315.82276367 -820.88647461 315.21630859 C-820.30003174 314.67055176 -819.71358887 314.12479492 -819.109375 313.5625 C-818.31998535 312.82193359 -818.31998535 312.82193359 -817.51464844 312.06640625 C-816 311 -816 311 -813 311 C-813 311.99 -813 312.98 -813 314 C-812.34 314.33 -811.68 314.66 -811 315 C-812.8125 317 -812.8125 317 -815 319 C-815.99 319 -816.98 319 -818 319 C-818.27070312 319.845625 -818.54140625 320.69125 -818.8203125 321.5625 C-820.03760831 325.10958713 -821.4348852 328.53775509 -822.875 332 C-833.38498541 357.95982393 -838.17904621 388.56236966 -827.75 415.375 C-824.69204158 422.08218372 -821.06407125 428.97375679 -815.78515625 434.1875 C-814 436 -814 436 -814 438 C-813.4328125 438.25265625 -812.865625 438.5053125 -812.28125 438.765625 C-809.7021979 440.16113949 -807.72267886 441.83849618 -805.5 443.75 C-781.38653986 463.24523897 -745.78554737 465.93362181 -716 465 C-715.32888184 464.98598145 -714.65776367 464.97196289 -713.96630859 464.95751953 C-698.17837107 464.60326787 -682.60035383 462.30879818 -667 460 C-665.10386963 459.7213208 -665.10386963 459.7213208 -663.16943359 459.43701172 C-622.50796504 453.35379989 -584.01157083 441.33192078 -546 426 C-544.26957255 425.30979228 -542.53910917 424.61967462 -540.80859375 423.9296875 C-532.37177301 420.53690859 -524.111622 416.81621244 -515.90673828 412.90039062 C-513.96506957 411.98350532 -512.01375817 411.09083388 -510.05859375 410.203125 C-498.95888006 405.13242595 -488.28714372 399.37867204 -477.62353516 393.45214844 C-475.26024131 392.14404572 -472.88880741 390.85311793 -470.51171875 389.5703125 C-447.92030014 377.31834584 -426.41138918 363.18143035 -405 349 C-404.11747559 348.41669922 -403.23495117 347.83339844 -402.32568359 347.23242188 C-374.71388243 328.98704633 -374.71388243 328.98704633 -348.40234375 308.9453125 C-345.55704815 306.64131704 -342.6573201 304.41213827 -339.75 302.1875 C-315.28854455 283.47224527 -315.28854455 283.47224527 -292.65625 262.625 C-289.57490322 259.57990436 -286.34855316 256.75772569 -283.0625 253.9375 C-282.41514893 253.3803833 -281.76779785 252.8232666 -281.10083008 252.24926758 C-279.74973415 251.08676519 -278.39808366 249.92490705 -277.04589844 248.76367188 C-275.0148557 247.0128064 -272.9945619 245.25024807 -270.9765625 243.484375 C-269.71360774 242.38534074 -268.45058942 241.2863795 -267.1875 240.1875 C-266.59525635 239.66599365 -266.0030127 239.1444873 -265.39282227 238.60717773 C-261.22636371 235 -261.22636371 235 -259 235 C-258.67 234.01 -258.34 233.02 -258 232 C-256.5390625 230.5625 -256.5390625 230.5625 -254.625 229 C-251.06819627 225.99137749 -247.77145071 222.81701409 -244.5 219.5 C-239.31674929 214.25160168 -233.9991637 209.28197238 -228.125 204.8125 C-225.94174898 202.95031531 -225.17706954 201.56092157 -224 199 C-224.52972412 198.85667236 -225.05944824 198.71334473 -225.60522461 198.56567383 C-234.12389756 196.14272174 -242.31741352 192.8937711 -250.5625 189.6875 C-261.37064806 185.49193709 -272.21330217 181.45523921 -283.16226196 177.64120483 C-287.22194037 176.2247432 -291.26978213 174.77654389 -295.3125 173.3125 C-296.10849609 173.03083984 -296.90449219 172.74917969 -297.72460938 172.45898438 C-298.49224609 172.17990234 -299.25988281 171.90082031 -300.05078125 171.61328125 C-300.71762939 171.37391846 -301.38447754 171.13455566 -302.0715332 170.88793945 C-304.40568745 169.81320607 -306.12310342 168.7702262 -308 167 C-308.77368164 164.63427734 -308.77368164 164.63427734 -309.16015625 161.8359375 C-309.31242676 160.80404297 -309.46469727 159.77214844 -309.62158203 158.70898438 C-309.83983643 157.05866211 -309.83983643 157.05866211 -310.0625 155.375 C-310.39349434 153.1014113 -310.72552935 150.82797387 -311.05859375 148.5546875 C-311.2169873 147.43803711 -311.37538086 146.32138672 -311.53857422 145.17089844 C-312.15536084 140.93236686 -312.87059174 136.71589705 -313.625 132.5 C-313.95371094 130.62828125 -313.95371094 130.62828125 -314.2890625 128.71875 C-314.80863184 126.00100266 -315.37570272 123.32313395 -315.99609375 120.62890625 C-317.05660923 115.92762112 -317.76680436 111.20767567 -318.4375 106.4375 C-319.97964818 95.86151233 -321.84368086 85.37866774 -324.078125 74.92578125 C-324.35378296 73.63522827 -324.35378296 73.63522827 -324.63500977 72.31860352 C-324.99556492 70.64233272 -325.36044041 68.96698369 -325.73022461 67.29272461 C-325.89530518 66.53096924 -326.06038574 65.76921387 -326.23046875 64.984375 C-326.45319458 63.97455566 -326.45319458 63.97455566 -326.68041992 62.94433594 C-327 61 -327 61 -327 57 C-320.21396951 57.49700505 -314.57076244 60.06269298 -308.375 62.75 C-306.22450415 63.6653459 -304.0734668 64.57942071 -301.921875 65.4921875 C-300.89642578 65.92885742 -299.87097656 66.36552734 -298.81445312 66.81542969 C-293.59395218 69.01267731 -288.29875856 71.00032166 -283 73 C-277.27252156 75.22487072 -271.62842507 77.59740768 -266 80.0625 C-261.233679 82.12361178 -256.56118314 83.80333705 -251.5637207 85.18359375 C-248.92650599 86.02340386 -246.52674513 87.07152419 -244.0234375 88.25 C-237.69465518 91.16979671 -231.27102547 93.8195758 -224.8125 96.4375 C-223.0171582 97.16743164 -223.0171582 97.16743164 -221.18554688 97.91210938 C-213.93615149 100.84723043 -206.65885734 103.65220436 -199.3203125 106.35546875 C-193.45783704 108.55496893 -187.67244576 110.94834052 -181.875 113.3125 C-180.71959717 113.77841553 -179.56419434 114.24433105 -178.3737793 114.72436523 C-172.73959247 117.00755893 -167.16412216 119.35600234 -161.65234375 121.921875 C-160.66443848 122.36748779 -159.6765332 122.81310059 -158.65869141 123.2722168 C-156.80862479 124.11092001 -154.97225652 124.98076996 -153.15380859 125.88598633 C-150.66523764 126.99468125 -148.71734705 127.77914626 -146 128 C-142.75816147 126.55471239 -140.47638671 124.50788234 -138 122 C-137.07622559 121.09870361 -137.07622559 121.09870361 -136.13378906 120.17919922 C-134.99559505 119.052911 -133.8698198 117.91399241 -132.75390625 116.765625 C-128.68440667 112.668935 -124.19544347 109.01685317 -119.80078125 105.27734375 C-118.61691018 104.26855453 -117.43332532 103.25942934 -116.25 102.25 C-115.34531982 101.47849609 -115.34531982 101.47849609 -114.42236328 100.69140625 C-110.47628277 97.30995277 -106.61940324 93.84944556 -102.8125 90.3125 C-98.30005897 86.12089085 -93.62037931 82.20062445 -88.81640625 78.34765625 C-85.03450357 75.19519646 -81.44329368 71.85257939 -77.8828125 68.453125 C-74.212012 65 -74.212012 65 -72 65 C-72 64.34 -72 63.68 -72 63 C-70.3203125 61.2734375 -70.3203125 61.2734375 -68.125 59.375 C-67.40570312 58.74335938 -66.68640625 58.11171875 -65.9453125 57.4609375 C-64 56 -64 56 -62 56 C-62 55.34 -62 54.68 -62 54 C-60.44759659 52.60674046 -58.82970015 51.28619872 -57.1875 50 C-53.16052706 46.78254658 -49.28942988 43.49961778 -45.5 40 C-41.12154733 35.97454846 -36.61121665 32.18123387 -31.98828125 28.44140625 C-28.41522603 25.52224348 -24.88801788 22.55346365 -21.375 19.5625 C-20.75842529 19.04187988 -20.14185059 18.52125977 -19.5065918 17.98486328 C-16.30915373 15.36279756 -16.30915373 15.36279756 -14 12 C-13.01 12 -12.02 12 -11 12 C-11 11.34 -11 10.68 -11 10 C-9.40288354 8.60868258 -7.74647316 7.28482665 -6.0625 6 C-2.48783076 3.45663229 -2.48783076 3.45663229 0 0 Z " fill="#FFFFFF" transform="translate(982,363)"/>
<path d="M0 0 C4.6091007 1.37159039 8.47872172 3.26168891 12.625 5.6875 C14.28402344 6.65236328 14.28402344 6.65236328 15.9765625 7.63671875 C16.89876587 8.17848755 16.89876587 8.17848755 17.83959961 8.73120117 C20.46675044 10.2741216 23.0985484 11.80897978 25.73046875 13.34375 C26.76300781 13.94598389 27.79554688 14.54821777 28.859375 15.16870117 C31.84742853 16.91103556 34.83577203 18.65287137 37.82421875 20.39453125 C42.91115887 23.35938057 47.99655793 26.32686097 53.08105469 29.29589844 C54.91208068 30.36486477 56.74341369 31.43330559 58.57519531 32.50097656 C72.25989462 40.47948893 72.25989462 40.47948893 78.875 44.75 C82.22933797 46.914251 85.60872337 48.92276451 89.125 50.8125 C91.08485563 51.87218938 93.04295146 52.93513535 95 54 C95.70125 54.38091797 96.4025 54.76183594 97.125 55.15429688 C99.46882794 56.43904716 101.79748814 57.7484569 104.125 59.0625 C104.88441895 59.47411377 105.64383789 59.88572754 106.42626953 60.30981445 C111.59185157 63.26199576 111.59185157 63.26199576 113.2421875 66.24609375 C112.85807773 70.61379358 110.9645389 74.12395366 109 78 C108.63358398 78.74137207 108.26716797 79.48274414 107.88964844 80.24658203 C99.73306784 96.51335848 90.57804463 111.93441996 79 126 C78.52755859 126.57540527 78.05511719 127.15081055 77.56835938 127.74365234 C66.6788128 140.89174511 54.8729209 153.94637618 41.22265625 164.26953125 C38.84464011 166.12095682 36.69283594 168.12081706 34.5 170.1875 C22.5838982 181.02031982 8.76717138 189.73035671 -5 198 C-5.6894873 198.41878418 -6.37897461 198.83756836 -7.08935547 199.26904297 C-16.51588083 204.98819148 -26.06927435 210.26640902 -36.00830078 215.04101562 C-37.97881962 215.98980185 -39.94064902 216.95500122 -41.90234375 217.921875 C-62.23570056 227.83463538 -83.36919614 235.46603555 -105 242 C-105.86447754 242.2676416 -106.72895508 242.5352832 -107.61962891 242.81103516 C-135.54195574 251.44415716 -164.06985789 256.30554266 -193 260 C-193.66285507 260.0890007 -194.32571014 260.1780014 -195.00865173 260.2696991 C-199.13817708 260.81287729 -203.2173804 261.16910992 -207.37890625 261.31640625 C-208.54873047 261.35830078 -209.71855469 261.40019531 -210.92382812 261.44335938 C-212.12458984 261.48267578 -213.32535156 261.52199219 -214.5625 261.5625 C-215.73619141 261.60568359 -216.90988281 261.64886719 -218.11914062 261.69335938 C-232.31840738 262.18245386 -246.44356074 262.05853116 -260.625 261.25 C-261.37878937 261.20709839 -262.13257874 261.16419678 -262.90921021 261.11999512 C-299.98710553 258.9438329 -340.16055235 253.26187219 -374 237 C-374 236.34 -374 235.68 -374 235 C-372.89527344 234.90589844 -371.79054688 234.81179688 -370.65234375 234.71484375 C-365.3668822 234.04619404 -360.5601596 232.35482953 -355.5625 230.5625 C-354.05695557 230.02906982 -354.05695557 230.02906982 -352.52099609 229.48486328 C-340.8838302 225.31236836 -329.42079222 220.72864154 -318 216 C-317.01631439 215.59273682 -317.01631439 215.59273682 -316.01275635 215.17724609 C-311.69871316 213.38899436 -307.38969529 211.58911851 -303.08514404 209.77813721 C-301.68428109 209.18903984 -300.28281839 208.60136605 -298.88067627 208.01531982 C-288.7003651 203.75305412 -278.8109326 199.05302001 -269 194 C-268.00621338 193.48888672 -267.01242676 192.97777344 -265.98852539 192.45117188 C-263.34192618 191.08018903 -260.70113279 189.69874625 -258.0625 188.3125 C-256.09650748 187.28225947 -254.13035563 186.25232294 -252.1640625 185.22265625 C-251.16020508 184.69687988 -250.15634766 184.17110352 -249.12207031 183.62939453 C-245.90622828 181.95106096 -242.68451355 180.28452019 -239.4609375 178.62109375 C-224.71544262 171.01347325 -224.71544262 171.01347325 -210.2578125 162.87890625 C-207.46615308 161.26884848 -204.65293386 159.7278381 -201.81640625 158.19921875 C-196.03722183 155.0578262 -190.41737793 151.69071773 -184.8125 148.25 C-183.80856201 147.63584229 -182.80462402 147.02168457 -181.77026367 146.38891602 C-178.84441932 144.5965174 -175.9214942 142.79947859 -173 141 C-172.24460937 140.53513184 -171.48921875 140.07026367 -170.7109375 139.59130859 C-148.70701957 126.02187726 -126.65047513 112.09348964 -106.11328125 96.37109375 C-101.1316593 92.57706047 -96.07239282 88.88856971 -91.02490234 85.18286133 C-87.39272043 82.51261212 -83.76755785 79.83631422 -80.18359375 77.1015625 C-79.62671875 76.67746094 -79.06984375 76.25335937 -78.49609375 75.81640625 C-77.0450459 74.70720927 -75.59850908 73.59211781 -74.15234375 72.4765625 C-72 71 -72 71 -70 71 C-70 70.34 -70 69.68 -70 69 C-68.53125 67.703125 -68.53125 67.703125 -66.5 66.25 C-65.76007813 65.71246094 -65.02015625 65.17492187 -64.2578125 64.62109375 C-63.51273438 64.08613281 -62.76765625 63.55117188 -62 63 C-51.03729872 54.93088725 -40.42732718 46.45073144 -30.078125 37.61328125 C-27.2729268 35.22117731 -24.42536843 32.88544149 -21.5625 30.5625 C-16.65522713 26.57220658 -11.86393864 22.45872082 -7.07958984 18.32299805 C-3.02103503 14.8306088 1.12658683 11.49928298 5.42578125 8.3046875 C7.13454489 7.06697902 7.13454489 7.06697902 8 5 C7.13375 4.87625 7.13375 4.87625 6.25 4.75 C3.3840696 3.79468987 2.0009236 2.21530827 0 0 Z " fill="#FFFFFF" transform="translate(793,689)"/>
<path d="" fill="#FFFFFF" transform="translate(0,0)"/>
<path d="" fill="#FFFFFF" transform="translate(0,0)"/>
<path d="" fill="#FFFFFF" transform="translate(0,0)"/>
<path d="" fill="#FFFFFF" transform="translate(0,0)"/>
<path d="" fill="#FFFFFF" transform="translate(0,0)"/>
<path d="" fill="#FFFFFF" transform="translate(0,0)"/>
<path d="" fill="#FFFFFF" transform="translate(0,0)"/>
<path d="" fill="#FFFFFF" transform="translate(0,0)"/>
<path d="" fill="#FFFFFF" transform="translate(0,0)"/>
<path d="" fill="#FFFFFF" transform="translate(0,0)"/>
<path d="" fill="#FFFFFF" transform="translate(0,0)"/>
<path d="" fill="#FFFFFF" transform="translate(0,0)"/>
</svg>
